<?xml version="1.0" standalone="no"?>
<!DOCTYPE svg PUBLIC "-//W3C//DTD SVG 20010904//EN"
 "http://www.w3.org/TR/2001/REC-SVG-20010904/DTD/svg10.dtd">
<svg version="1.0" xmlns="http://www.w3.org/2000/svg"
 width="687.000000pt" height="687.000000pt" viewBox="0 0 687.000000 687.000000"
 preserveAspectRatio="xMidYMid meet">
<metadata>
Created by potrace 1.11, written by Peter Selinger 2001-2013
</metadata>
<g transform="translate(0.000000,687.000000) scale(0.100000,-0.100000)"
fill="#000000" stroke="none">
<path d="M2165 5820 l-1159 -5 -33 -155 c-43 -203 -40 -191 -47 -220 -3 -14
-8 -36 -10 -50 -5 -29 -80 -383 -95 -450 -5 -25 -13 -61 -16 -80 -3 -19 -8
-43 -11 -52 -3 -9 -6 -25 -8 -35 -2 -10 -47 -220 -99 -468 -96 -450 -125 -588
-133 -635 -3 -14 -14 -63 -24 -110 -11 -47 -22 -96 -24 -110 -2 -14 -16 -78
-30 -142 -14 -64 -27 -127 -30 -140 -4 -19 -70 -334 -81 -388 -2 -8 -10 -47
-19 -85 -8 -39 -17 -83 -20 -98 -11 -52 -16 -76 -71 -333 -31 -143 -58 -271
-60 -286 -3 -14 -17 -80 -31 -145 -14 -65 -27 -127 -30 -138 -2 -11 -6 -31 -9
-45 -3 -14 -7 -34 -9 -45 -3 -11 -14 -65 -25 -121 -12 -55 -23 -109 -25 -120
-3 -10 -12 -53 -21 -94 -14 -69 -29 -140 -41 -197 l-4 -23 533 0 533 0 32 133
c18 72 32 135 32 140 0 4 -175 7 -389 7 l-389 0 14 58 c14 58 143 667 150 712
3 14 7 33 10 42 3 10 8 30 10 45 3 16 25 123 50 238 24 116 46 219 48 230 2
11 7 31 10 45 3 14 8 37 10 53 3 15 7 35 10 45 3 9 7 28 10 42 5 29 81 390
126 600 17 80 33 156 36 170 2 14 11 57 20 95 14 63 27 126 40 195 3 14 9 41
14 60 5 19 11 49 14 65 3 17 22 107 41 200 41 190 39 182 60 285 9 41 20 93
25 115 9 35 106 498 116 550 2 11 6 29 8 40 3 11 17 78 31 150 15 71 31 139
35 150 8 20 10 20 1106 19 605 -1 1133 -4 1174 -8 172 -15 414 -74 536 -131
289 -133 476 -394 521 -730 16 -116 7 -329 -22 -502 -75 -445 -266 -720 -699
-1004 -259 -171 -545 -279 -830 -314 -31 -4 -58 -11 -61 -15 -3 -5 -21 -86
-41 -182 -39 -187 -39 -191 -48 -228 -3 -14 -8 -36 -10 -50 -2 -14 -10 -47
-16 -75 -6 -27 -14 -61 -16 -75 -3 -14 -11 -51 -18 -83 -7 -31 -11 -59 -7 -60
3 -2 69 -3 146 -3 l140 1 17 80 c10 44 20 91 23 105 2 14 19 93 36 176 l31
152 38 6 c20 3 76 17 125 31 288 84 539 212 795 407 279 212 413 367 536 618
36 74 100 257 109 312 3 18 8 40 10 48 4 14 8 38 20 113 3 17 7 43 10 57 26
146 27 471 2 590 -40 190 -103 343 -209 504 -93 141 -280 297 -453 376 -136
63 -363 127 -514 145 -30 4 -63 9 -75 11 -12 2 -73 7 -136 10 -63 3 -119 6
-125 7 -5 1 -532 0 -1170 -3z"/>
<path d="M4249 5807 c7 -7 100 -70 207 -142 l195 -130 485 0 c423 0 485 -2
488 -15 11 -45 27 -115 45 -200 11 -52 39 -183 62 -290 22 -107 43 -203 45
-215 2 -11 6 -31 9 -45 3 -14 7 -34 9 -45 2 -11 13 -63 24 -115 11 -52 50
-237 86 -410 37 -173 73 -344 81 -380 8 -36 35 -164 60 -285 55 -263 136 -646
171 -805 14 -63 27 -124 29 -135 2 -19 70 -343 141 -675 37 -170 41 -191 48
-225 2 -11 18 -87 36 -170 17 -82 33 -160 36 -173 l4 -22 -484 0 -484 0 -6 27
c-4 16 -9 41 -12 58 -3 16 -28 133 -55 260 -27 126 -52 241 -54 255 -3 14 -16
79 -30 145 -15 66 -44 208 -66 315 -22 106 -42 197 -44 200 -2 3 -6 23 -10 45
-3 22 -14 78 -24 125 l-18 85 -506 3 -506 2 -10 -52 c-6 -29 -13 -62 -15 -73
-3 -11 -21 -96 -40 -189 -20 -93 -38 -181 -41 -197 -3 -15 -17 -81 -31 -146
-14 -65 -27 -127 -30 -138 -2 -11 -24 -117 -49 -235 -25 -118 -48 -228 -51
-245 -2 -16 -8 -39 -11 -50 -3 -11 -14 -58 -23 -105 l-16 -85 -1146 -3 -1146
-2 8 37 c5 21 27 126 50 233 23 107 52 246 66 308 13 63 26 123 28 135 3 12 7
33 10 47 3 14 13 59 22 100 8 41 26 125 39 185 13 61 26 121 29 135 2 14 9 45
15 70 5 25 12 56 15 70 7 37 57 272 62 295 3 11 9 40 14 65 5 25 19 88 30 140
11 52 30 142 41 200 12 58 24 108 28 112 3 3 155 8 336 11 312 5 336 6 440 31
110 26 135 35 230 83 196 100 336 280 395 508 25 96 34 257 19 340 -25 141
-131 280 -260 344 -69 33 -190 68 -279 79 -30 4 -203 7 -385 7 l-329 0 -8 -36
c-4 -20 -9 -47 -12 -60 -3 -13 -12 -55 -20 -94 -8 -38 -17 -82 -20 -97 -13
-63 -20 -95 -76 -358 -32 -151 -57 -276 -56 -278 3 -3 177 -5 248 -3 37 1 43
7 52 58 2 10 11 52 19 93 9 41 18 86 21 100 13 72 68 330 77 363 l10 38 209
-1 c324 -2 439 -34 506 -139 76 -120 12 -392 -124 -529 -77 -77 -174 -122
-337 -158 -16 -3 -219 -8 -450 -9 -231 -2 -423 -4 -426 -4 -4 -1 -10 -18 -13
-38 -4 -21 -22 -110 -41 -198 -19 -88 -36 -171 -39 -185 -11 -58 -107 -519
-117 -560 -6 -25 -13 -56 -16 -70 -2 -13 -11 -56 -19 -95 -8 -38 -33 -153 -54
-255 -83 -396 -130 -626 -134 -645 -2 -11 -9 -40 -15 -65 -5 -25 -12 -56 -15
-70 -2 -14 -23 -110 -45 -215 -68 -325 -65 -305 -49 -306 52 -3 2849 -1 2852
2 3 3 24 101 42 199 3 14 10 45 15 70 6 25 13 56 15 70 3 14 10 45 15 70 6 25
13 56 15 70 3 14 11 57 20 95 8 39 16 79 18 90 3 11 9 40 15 65 5 25 12 56 15
70 2 14 9 48 15 75 6 28 13 61 16 75 6 30 14 68 20 95 2 11 16 75 29 143 14
68 30 140 35 160 6 20 13 57 16 81 3 23 10 53 15 66 l9 23 272 -2 273 -1 8
-35 c4 -19 10 -51 13 -70 3 -19 10 -51 15 -70 5 -19 16 -69 24 -110 9 -41 29
-140 46 -220 17 -80 44 -208 60 -285 16 -77 47 -225 70 -330 22 -104 42 -199
44 -210 13 -82 41 -185 50 -186 6 0 353 -1 771 -1 678 -1 760 1 759 14 -1 9
-9 55 -19 104 -21 106 -20 103 -28 134 -4 14 -9 36 -11 50 -2 14 -12 59 -21
100 -9 41 -18 86 -21 100 -2 14 -11 57 -20 95 -8 39 -16 79 -19 90 -17 86
-109 511 -131 605 -1 8 -10 48 -19 89 -9 41 -18 77 -20 80 -1 3 -6 23 -9 44
-3 21 -26 129 -51 240 -25 111 -47 211 -49 222 -7 35 -56 257 -71 320 -7 33
-21 96 -30 140 -21 100 -13 63 -83 390 -33 154 -62 294 -65 310 -3 17 -24 118
-47 225 -22 107 -52 249 -66 315 -14 66 -32 149 -39 185 -18 82 -112 535 -120
575 -3 17 -20 100 -38 185 l-33 155 -808 2 c-618 1 -806 -1 -797 -10z"/>
</g>
</svg>
