<?xml version="1.0" standalone="no"?>
<!DOCTYPE svg PUBLIC "-//W3C//DTD SVG 20010904//EN"
 "http://www.w3.org/TR/2001/REC-SVG-20010904/DTD/svg10.dtd">
<svg version="1.0" xmlns="http://www.w3.org/2000/svg"
 width="960.000000pt" height="960.000000pt" viewBox="0 0 960.000000 960.000000"
 preserveAspectRatio="xMidYMid meet">
<metadata>
Created by potrace 1.11, written by Peter Selinger 2001-2013
</metadata>
<g transform="translate(0.000000,960.000000) scale(0.100000,-0.100000)"
fill="#000000" stroke="none">
<path d="M0 4800 l0 -4800 4800 0 4800 0 0 4800 0 4800 -4800 0 -4800 0 0
-4800z m5162 3529 c98 -11 199 -24 225 -30 27 -5 136 -12 243 -15 192 -6 235
-3 485 31 156 21 504 30 646 16 143 -14 338 -64 499 -129 88 -35 241 -115 287
-148 17 -13 35 -24 40 -24 5 0 22 -12 39 -27 16 -16 46 -40 65 -54 61 -46 199
-190 272 -284 52 -65 217 -333 217 -351 0 -5 13 -35 30 -69 58 -118 168 -430
191 -540 4 -22 15 -69 24 -105 41 -170 80 -470 95 -730 12 -210 12 -703 0
-930 -14 -267 -62 -765 -96 -1005 -8 -60 -19 -148 -24 -195 -5 -47 -16 -123
-24 -170 -54 -305 -67 -378 -75 -400 -18 -49 -40 -126 -51 -174 -21 -95 -101
-279 -206 -474 -31 -58 -225 -345 -236 -350 -5 -2 -8 -9 -8 -15 0 -7 -16 -32
-35 -56 -19 -24 -35 -48 -35 -53 0 -5 -19 -38 -42 -73 -24 -35 -56 -86 -73
-115 -16 -28 -43 -72 -60 -97 -16 -25 -39 -60 -50 -78 -29 -47 -59 -89 -66
-95 -3 -3 -12 -16 -18 -29 -29 -53 -200 -237 -297 -318 -93 -77 -152 -123
-159 -123 -4 0 -22 -11 -39 -23 -46 -36 -193 -112 -261 -137 -33 -12 -77 -28
-98 -36 -21 -8 -97 -26 -170 -40 -243 -48 -565 -28 -912 55 -66 16 -136 32
-155 35 -19 2 -78 14 -130 26 -115 25 -286 47 -435 55 -451 26 -659 65 -865
163 -103 49 -164 98 -340 272 -175 172 -182 179 -285 245 -89 58 -204 114
-310 152 -38 14 -83 31 -100 39 -16 7 -55 22 -85 33 -63 22 -174 68 -240 99
-57 27 -282 102 -335 112 -126 24 -463 115 -504 136 -14 8 -33 14 -42 14 -9 0
-53 18 -97 40 -44 22 -83 40 -87 40 -5 0 -22 11 -39 24 -17 12 -45 30 -63 39
-17 9 -37 22 -45 29 -7 8 -35 31 -63 53 -57 45 -189 178 -213 215 -9 14 -29
42 -46 63 -43 57 -98 163 -161 312 -17 39 -41 122 -71 240 -33 129 -77 483
-95 765 -18 268 -18 1149 -1 1295 36 305 110 628 189 823 18 46 33 88 33 93 0
14 112 242 127 257 7 7 13 18 13 24 0 14 123 200 144 217 9 7 16 17 16 21 0 5
12 22 28 38 15 16 36 40 47 53 35 41 148 143 195 176 144 102 262 162 435 223
44 16 100 36 125 46 25 9 59 20 75 24 17 5 55 18 85 30 30 12 73 28 96 35 22
7 72 27 110 45 38 18 107 50 154 71 47 22 110 52 140 68 114 58 336 135 550
191 154 40 336 99 406 131 34 16 64 29 68 29 5 0 69 30 144 66 153 74 336 154
353 154 6 0 25 6 42 14 91 40 259 75 432 89 84 7 291 -3 477 -24z"/>
<path d="M4565 8135 c-133 -22 -217 -50 -342 -115 -62 -32 -118 -62 -125 -66
-7 -5 -18 -9 -25 -10 -6 -1 -40 -22 -75 -47 -72 -51 -246 -152 -331 -192 -32
-15 -55 -30 -52 -33 3 -3 41 13 85 34 44 22 80 37 80 33 0 -5 -39 -27 -87 -51
l-86 -43 -231 -6 c-132 -3 -244 -11 -261 -17 -16 -6 -68 -23 -115 -37 -93 -28
-230 -101 -230 -122 0 -7 -3 -13 -7 -13 -5 0 -51 -36 -103 -80 -52 -44 -100
-80 -108 -80 -7 0 -34 -11 -60 -24 -88 -44 -289 -98 -242 -65 11 8 4 9 -25 4
-22 -4 -66 -9 -98 -10 -76 -5 -240 -56 -355 -112 -79 -38 -106 -58 -175 -130
-45 -47 -104 -103 -132 -126 -41 -33 -37 -27 24 36 41 42 73 79 70 82 -10 9
-116 -94 -172 -167 -76 -100 -117 -170 -172 -296 -26 -59 -50 -109 -54 -112
-5 -3 -20 -39 -34 -80 -16 -45 -25 -61 -22 -40 7 53 -29 -52 -65 -185 -16 -60
-40 -145 -54 -188 -39 -118 -59 -263 -82 -599 -4 -56 -11 -98 -17 -98 -6 0 -7
-22 -3 -62 4 -35 8 -200 10 -368 2 -168 9 -345 15 -395 6 -49 11 -142 11 -205
0 -122 7 -171 21 -149 10 16 17 -27 27 -154 5 -56 4 -101 -1 -104 -11 -7 -4
-55 39 -276 37 -184 42 -252 10 -128 -18 70 -44 102 -31 38 10 -50 84 -245
122 -322 79 -157 209 -314 310 -371 27 -15 62 -40 78 -55 47 -43 131 -80 246
-109 68 -17 114 -35 128 -49 11 -11 28 -21 36 -21 22 0 18 7 -12 25 -18 10
-21 14 -8 11 141 -37 257 -54 400 -60 88 -4 177 -2 198 3 35 8 41 6 84 -30 26
-21 48 -46 49 -56 6 -39 146 -138 267 -189 33 -14 66 -32 74 -39 38 -39 278
-86 423 -84 l85 2 -75 9 c-185 22 -185 23 5 24 118 1 182 -2 170 -7 -13 -6 2
-8 44 -4 66 5 88 14 61 23 -8 3 10 10 40 16 30 6 58 8 61 3 3 -4 25 -1 48 8
l43 15 -17 -26 c-101 -155 -138 -252 -139 -364 0 -121 26 -185 111 -267 68
-66 111 -86 217 -99 28 -4 56 -10 61 -14 9 -7 194 -28 250 -28 11 0 74 -5 140
-10 66 -6 228 -9 360 -8 170 2 250 -1 275 -9 19 -7 71 -23 115 -36 44 -12 119
-35 166 -51 48 -15 96 -28 106 -28 10 0 23 -4 28 -9 6 -5 44 -16 85 -24 41 -8
127 -27 190 -43 106 -25 131 -27 325 -28 141 0 219 3 237 11 16 8 28 8 30 2 2
-5 27 2 56 16 29 14 57 23 62 20 10 -6 211 94 260 130 202 149 436 357 425
375 -3 5 6 17 20 26 14 9 25 20 25 24 0 5 19 37 43 71 57 83 52 74 91 159 43
93 106 292 106 334 0 9 24 31 53 50 116 75 252 224 344 378 48 82 100 210 137
341 36 125 97 412 102 477 2 30 11 88 19 127 9 40 14 76 12 80 -3 5 -1 34 4
66 5 33 25 190 44 350 19 161 39 318 43 349 5 32 5 61 1 65 -4 4 -3 31 1 58 4
28 6 71 3 98 -4 28 -2 47 4 47 6 0 8 12 6 28 -3 19 -2 23 5 13 18 -25 24 240
19 760 -6 538 -13 643 -63 918 -30 165 -54 254 -118 439 -133 384 -171 454
-434 792 -101 129 -197 196 -432 296 -72 31 -131 47 -317 89 -13 3 -22 11 -20
17 6 33 -372 61 -530 40 -114 -16 -359 -63 -375 -73 -28 -17 3 -19 71 -3 40 9
74 14 77 12 7 -8 -187 -49 -276 -59 -117 -13 -250 1 -520 56 -124 25 -250 50
-280 55 -30 5 -73 14 -95 20 -70 18 -311 21 -410 5z m265 -15 c0 -6 -34 -10
-91 -10 -49 0 -88 3 -86 8 8 12 177 14 177 2z m1357 -56 c-3 -3 -12 -4 -19 -1
-8 3 -5 6 6 6 11 1 17 -2 13 -5z m-1157 -279 c63 -13 187 -40 275 -59 201 -45
343 -60 463 -52 105 8 333 53 455 90 209 64 457 56 738 -23 259 -73 430 -192
582 -405 32 -43 57 -83 57 -88 0 -5 11 -24 25 -42 33 -43 104 -197 148 -321
74 -208 122 -411 159 -686 21 -151 23 -201 23 -639 0 -457 -6 -608 -41 -1080
-38 -525 -110 -1005 -205 -1385 -75 -296 -229 -494 -486 -624 -205 -103 -470
-119 -686 -41 -137 51 -290 157 -302 211 -4 17 -24 48 -46 68 -37 36 -40 46
-93 252 -137 537 -203 1099 -207 1774 -2 297 -12 241 -25 -135 -7 -224 -9
-245 -17 -175 -9 86 5 355 29 562 8 67 14 143 13 170 -1 26 -10 -22 -20 -107
-10 -85 -23 -184 -28 -220 l-8 -65 -2 58 c0 32 8 133 20 225 19 157 22 322 6
339 -14 14 -20 -9 -18 -69 1 -47 -1 -59 -9 -48 -9 11 -10 5 -5 -25 6 -41 -38
-392 -51 -403 -4 -4 -4 7 -1 23 3 17 15 106 28 199 17 127 20 171 11 174 -8 2
-13 30 -13 75 -2 55 -4 40 -10 -58 -5 -71 -20 -184 -34 -250 -23 -115 -25 -99
-4 65 14 119 24 490 12 490 -6 0 -12 -83 -16 -222 -4 -130 -15 -294 -27 -393
-18 -142 -22 -230 -23 -530 -1 -198 -5 -333 -8 -300 -5 54 -6 56 -7 15 -1 -25
3 -92 9 -150 5 -58 12 -181 14 -275 2 -93 9 -192 15 -220 6 -27 24 -124 40
-215 15 -91 36 -201 45 -245 22 -107 75 -346 81 -367 3 -11 -13 -30 -53 -60
-93 -71 -125 -88 -68 -35 28 25 45 46 39 47 -6 0 -19 -9 -29 -20 -10 -11 -23
-20 -29 -20 -6 0 -27 -11 -46 -23 -19 -13 -48 -27 -65 -31 -16 -4 -48 -16 -70
-26 -22 -11 -83 -31 -135 -44 -378 -100 -738 -76 -987 66 -65 37 -92 63 -79
75 3 3 25 -9 51 -27 25 -17 73 -44 108 -60 64 -30 227 -80 256 -79 9 0 -30 13
-87 30 -129 37 -211 74 -285 129 -63 47 -57 35 -107 240 -69 279 -107 497
-135 765 -18 180 -23 275 -40 824 -8 250 -17 456 -20 459 -3 3 -5 -137 -5
-311 0 -226 -3 -318 -11 -323 -11 -7 -8 416 5 741 4 82 3 89 -4 40 -4 -33 -11
-127 -16 -210 -7 -132 -9 -143 -16 -95 -9 60 -5 132 19 344 15 143 11 238 -10
217 -6 -6 -12 -25 -13 -43 -6 -118 -5 -115 -14 -88 -8 24 -8 24 -9 3 -1 -33
-21 -28 -22 5 -1 15 -6 -7 -10 -48 -20 -175 -47 -352 -48 -314 -1 22 8 137 18
255 27 300 32 387 20 394 -5 4 -9 -18 -9 -52 0 -32 -7 -121 -15 -198 -20 -187
-35 -566 -36 -912 0 -161 -5 -283 -10 -283 -15 0 -2 -574 15 -656 8 -39 20
-111 26 -160 18 -143 88 -474 117 -552 3 -8 -20 -24 -63 -43 -94 -43 -224 -90
-233 -85 -4 3 -37 -6 -74 -19 -191 -70 -513 -54 -693 35 -98 48 -280 215 -306
280 -23 59 -60 254 -97 515 -41 284 -51 428 -82 1120 -18 403 -26 427 -29 85
-2 -216 -5 -286 -11 -240 -7 59 -6 246 5 590 6 169 -9 81 -19 -113 -4 -81 -9
-146 -12 -143 -11 11 -3 239 12 356 18 136 14 233 -8 211 -7 -7 -13 -24 -13
-39 -1 -15 -2 -45 -4 -67 -2 -39 -3 -39 -10 -10 -6 24 -8 26 -9 8 -1 -27 -18
-31 -24 -5 -3 9 -5 4 -6 -13 -1 -39 -41 -327 -46 -340 -6 -13 3 124 20 310 23
251 26 303 17 309 -5 3 -12 -38 -15 -92 -4 -53 -14 -167 -22 -252 -11 -108
-16 -290 -18 -600 -1 -245 -5 -427 -9 -405 -4 22 -4 -21 -1 -95 3 -74 7 -202
8 -285 1 -112 7 -173 23 -240 11 -49 23 -115 27 -145 6 -51 39 -218 70 -355
14 -62 10 -74 -24 -75 -11 0 -9 4 5 15 18 14 17 14 -11 4 -16 -6 -102 -13
-190 -16 -132 -5 -175 -3 -240 12 -92 20 -115 30 -115 50 0 12 9 14 43 10 34
-5 27 0 -38 23 -44 15 -96 36 -115 46 l-35 19 24 -27 c49 -52 -7 -21 -103 59
-27 22 -69 67 -93 100 -25 32 -54 66 -65 73 -20 15 -78 99 -78 114 0 4 7 8 15
8 13 0 12 6 -5 39 -11 22 -31 74 -45 116 -19 60 -22 81 -14 97 8 15 8 46 0
112 -5 50 -13 125 -16 166 -7 72 -38 269 -69 431 -8 42 -17 110 -21 150 -3 41
-8 85 -11 98 -5 21 -3 23 10 12 13 -11 16 -7 22 24 7 41 4 75 -25 229 -16 83
-21 150 -21 278 0 93 4 167 9 164 4 -3 11 -72 15 -154 9 -188 24 -250 26 -107
1 60 5 92 9 80 8 -19 20 157 26 355 1 47 5 121 8 165 5 70 5 73 -3 25 -5 -30
-14 -129 -19 -218 -5 -90 -12 -166 -15 -170 -12 -12 -5 318 9 418 20 144 35
210 46 210 5 0 9 -15 10 -32 0 -19 8 5 19 57 11 50 26 106 35 125 8 19 31 89
51 155 52 174 109 281 208 392 25 28 46 54 46 57 0 3 -15 -3 -32 -14 -38 -23
-58 -25 -58 -8 0 7 49 60 109 118 89 88 123 114 192 148 108 53 168 68 92 23
-47 -28 -73 -51 -58 -51 4 0 26 12 51 26 24 14 65 28 92 30 26 3 79 11 117 19
39 7 106 19 150 25 143 21 259 58 290 95 21 25 195 156 290 219 139 93 187
106 410 116 214 10 289 24 439 85 63 25 119 45 124 45 6 0 20 14 32 31 23 31
327 238 415 281 68 34 168 66 240 78 93 14 285 3 415 -25z m-3933 -1597 c-3
-8 -6 -5 -6 6 -1 11 2 17 5 13 3 -3 4 -12 1 -19z m4760 -900 c-2 -13 -4 -5 -4
17 -1 22 1 32 4 23 2 -10 2 -28 0 -40z m-1780 -100 c-2 -13 -4 -5 -4 17 -1 22
1 32 4 23 2 -10 2 -28 0 -40z m-1600 -95 c-3 -10 -5 -2 -5 17 0 19 2 27 5 18
2 -10 2 -26 0 -35z m1554 -77 c-6 -35 -11 -78 -12 -97 0 -19 -3 -28 -6 -20 -3
8 0 60 8 115 7 56 15 93 17 83 2 -10 -1 -47 -7 -81z m-1605 -116 c-8 -52 -14
-84 -15 -70 -1 34 22 199 26 180 2 -8 -3 -58 -11 -110z m1581 -142 c-2 -24 -4
-5 -4 42 0 47 2 66 4 43 2 -24 2 -62 0 -85z m-1600 -65 c-2 -21 -4 -6 -4 32 0
39 2 55 4 38 2 -18 2 -50 0 -70z m3300 -270 c-2 -21 -4 -6 -4 32 0 39 2 55 4
38 2 -18 2 -50 0 -70z m-1760 -70 c-2 -27 -3 -5 -3 47 0 52 1 74 3 48 2 -27 2
-69 0 -95z m-1600 -60 c-2 -21 -4 -6 -4 32 0 39 2 55 4 38 2 -18 2 -50 0 -70z
m3540 -1525 c-3 -8 -6 -5 -6 6 -1 11 2 17 5 13 3 -3 4 -12 1 -19z m-1737 -133
c0 -5 -5 -3 -10 5 -5 8 -10 20 -10 25 0 6 5 3 10 -5 5 -8 10 -19 10 -25z
m1540 -131 c0 -8 -131 -66 -137 -61 -4 5 115 66 130 67 4 0 7 -3 7 -6z m441
-158 c16 -14 82 -57 146 -97 65 -40 125 -78 134 -86 20 -17 218 -68 322 -82
43 -6 107 -11 141 -11 56 0 212 22 258 36 15 4 15 1 5 -26 -6 -16 -17 -30 -24
-30 -7 0 -13 -7 -13 -14 0 -37 -144 -226 -259 -341 -66 -66 -125 -120 -130
-120 -5 0 -13 -4 -18 -9 -5 -5 -2 -6 7 -2 8 4 2 -4 -15 -18 -16 -14 -36 -24
-43 -21 -7 2 -20 -4 -29 -15 -10 -11 -22 -20 -28 -20 -5 0 -26 -10 -45 -22
-92 -58 -253 -99 -406 -103 -67 -1 -128 1 -135 6 -10 6 -5 9 16 10 17 1 -19 5
-80 9 -60 3 -119 11 -130 18 -11 6 -56 20 -100 31 -44 11 -89 23 -99 27 -14 5
-17 4 -11 -5 5 -10 2 -12 -11 -8 -11 3 -39 11 -64 18 -25 7 -52 18 -60 24 -17
14 -149 55 -174 55 -9 0 -42 9 -74 20 -50 18 -80 20 -247 19 -316 -3 -462 1
-649 17 -260 21 -316 39 -316 105 0 53 17 95 75 185 45 70 61 85 106 108 117
56 377 83 521 53 43 -9 115 -19 160 -22 46 -4 101 -11 123 -16 63 -15 219 5
425 55 250 60 392 114 519 198 19 12 31 16 26 8 -5 -7 20 6 54 30 34 24 64 47
67 52 9 14 25 9 55 -16z m-2488 -273 c-7 -2 -21 -2 -30 0 -10 3 -4 5 12 5 17
0 24 -2 18 -5z"/>
<path d="M4985 7770 c11 -5 27 -9 35 -9 9 0 8 4 -5 9 -11 5 -27 9 -35 9 -9 0
-8 -4 5 -9z"/>
<path d="M4490 7750 c-18 -12 -2 -12 25 0 13 6 15 9 5 9 -8 0 -22 -4 -30 -9z"/>
<path d="M4440 7730 c-8 -5 -10 -10 -5 -10 6 0 17 5 25 10 8 5 11 10 5 10 -5
0 -17 -5 -25 -10z"/>
<path d="M4280 7662 c-74 -44 -189 -126 -184 -131 4 -4 234 149 234 156 0 5
-4 3 -50 -25z"/>
<path d="M4030 7480 c-14 -11 -20 -20 -14 -20 6 0 19 9 29 20 23 25 17 25 -15
0z"/>
<path d="M5872 5395 c0 -16 2 -22 5 -12 2 9 2 23 0 30 -3 6 -5 -1 -5 -18z"/>
<path d="M4092 5280 c0 -14 2 -19 5 -12 2 6 2 18 0 25 -3 6 -5 1 -5 -13z"/>
<path d="M4013 5215 c0 -22 2 -30 4 -17 2 12 2 30 0 40 -3 9 -5 -1 -4 -23z"/>
<path d="M2491 5184 c0 -11 3 -14 6 -6 3 7 2 16 -1 19 -3 4 -6 -2 -5 -13z"/>
<path d="M2412 5120 c0 -19 2 -27 5 -17 2 9 2 25 0 35 -3 9 -5 1 -5 -18z"/>
<path d="M1306 4365 c6 -122 17 -198 25 -175 6 15 -2 95 -20 220 -9 57 -9 52
-5 -45z"/>
<path d="M3903 4110 c0 -36 2 -50 4 -32 2 17 2 47 0 65 -2 17 -4 3 -4 -33z"/>
<path d="M2082 2810 c31 -17 47 -19 100 -13 l63 7 -65 8 c-36 4 -81 10 -100
13 l-35 5 37 -20z"/>
<path d="M931 3813 c0 -21 4 -58 8 -83 8 -42 9 -39 10 32 0 42 -3 80 -9 83 -6
4 -10 -9 -9 -32z"/>
<path d="M952 3645 c0 -16 2 -22 5 -12 2 9 2 23 0 30 -3 6 -5 -1 -5 -18z"/>
</g>
</svg>
