<svg xmlns="http://www.w3.org/2000/svg" viewBox="0 0 171.45 119.14"><title>Asset 6@6x</title><g id="Layer_2" data-name="Layer 2"><g id="Layer_1_copy" data-name="Layer 1 copy"><path d="M26.68,119.14H0L12.56,59.57,25.13,0H81.92a57.74,57.74,0,0,1,18.86,2.76A32.8,32.8,0,0,1,109.14,7a26.71,26.71,0,0,1,4.45,4,31.23,31.23,0,0,1,6.1,10.68,31.51,31.51,0,0,1,1.75,9.83,68.89,68.89,0,0,1-.93,11.22A43.91,43.91,0,0,1,118,52.09a39.38,39.38,0,0,1-4.09,7.61,35.62,35.62,0,0,1-5.6,6.2,67.73,67.73,0,0,1-13.82,9.68A54.24,54.24,0,0,1,79.7,80.76l-1.43,6.77-1.27,6H69.85l2.07-9.84,1.92-9.12,1.21-.18,1.21-.18A47.14,47.14,0,0,0,90.41,69.8a60,60,0,0,0,13.25-9.12,28.67,28.67,0,0,0,4.55-5,32.45,32.45,0,0,0,3.33-6.24,36.52,36.52,0,0,0,2-7.14,60.29,60.29,0,0,0,1-10.75,24.7,24.7,0,0,0-1.24-7.16,24.22,24.22,0,0,0-4.85-8.7A23.37,23.37,0,0,0,97.9,9.17,51.84,51.84,0,0,0,81.92,7H30.8L19.72,59.57,8.63,112.14H28.15Z"/><path d="M158.89,59.57,156.54,48.4,146.33,0H105.87l10.5,7h24.29l11.08,52.57,11.08,52.57H138.54l-4-19-4-19H105.37l-4,19-4,19H40L45.67,85.3l5.66-26.84H62.9c8.32,0,13.83-2.28,17.47-5.51a20.37,20.37,0,0,0,6.2-11.25,19.09,19.09,0,0,0,.29-7.15A11.86,11.86,0,0,0,84.38,29a13.32,13.32,0,0,0-6.11-4.13,28.7,28.7,0,0,0-9.48-1.36H55.55L50.64,46.76H57.8L61.23,30.5h7.57a23.83,23.83,0,0,1,6.41.74,7.25,7.25,0,0,1,3.74,2.16A5.28,5.28,0,0,1,80,36.2a13,13,0,0,1-.3,4.06,13.17,13.17,0,0,1-3.93,7.41c-2.46,2.2-6.41,3.8-12.89,3.8H45.65L38.52,85.3l-7.14,33.84H103l4-19,4-19h13.81l4,19,4,19h38.59L166.74,96.8Z"/></g></g></svg>